<svg width="247" height="53" viewBox="0 0 247 53" fill="none" xmlns="http://www.w3.org/2000/svg">
<g clip-path="url(#clip0_189_3093)">
<path d="M11.3528 26.8175C9.93985 29.2826 9.19531 31.8739 9.19531 34.3471C9.19531 41.1453 12.7024 43.9644 14.2117 44.8619L14.6106 45.0845C17.137 46.0335 19.8198 46.5273 22.5307 46.5273C31.6942 46.5273 40.0979 40.7398 43.4687 32.2844C40.4503 34.3338 36.2284 35.3709 30.8846 35.3709C23.3002 35.3709 16.2196 32.2629 11.3528 26.8175Z" fill="white"/>
<path d="M30.8873 15.9536C24.0542 15.9536 17.5221 18.9555 13.3301 24.0018C17.5236 29.0447 24.0576 32.0466 30.8873 32.0466C35.7891 32.0466 45.0572 30.3644 45.0572 24.0018C45.0572 21.216 42.0953 15.9536 30.8873 15.9536Z" fill="white"/>
<path d="M11.3511 21.1876C16.2162 15.7407 23.3002 12.6292 30.8846 12.6292C36.2019 12.6292 40.4337 13.683 43.4888 15.764C40.1312 7.2772 31.7175 1.46631 22.5307 1.46631C19.823 1.46631 17.1336 1.96747 14.5375 2.95554L14.1121 3.20398C12.6394 4.10224 9.19531 6.93803 9.19531 13.6564C9.19531 16.1413 9.93664 18.7359 11.3511 21.1876Z" fill="white"/>
<path d="M9.19657 24.0021C7.01919 20.701 5.86897 17.1307 5.86897 13.6568C5.86897 11.6456 6.13151 9.77736 6.64677 8.07202C2.4583 12.2823 0 18.1131 0 24.0021C0 30.0988 2.41508 35.8466 6.68355 40.0335C6.14178 38.3032 5.86912 36.3985 5.86912 34.3474C5.86912 30.8702 7.01919 27.2997 9.19657 24.0021Z" fill="white"/>
<path d="M89.7338 30.3508C89.7338 37.6426 84.661 41.5105 76.5463 41.5105H61.6484V2.58299H75.2781C83.3928 2.58299 88.4639 6.19657 88.4639 13.1709C88.4639 17.3561 86.2467 20.3979 83.3928 21.4119C87.071 22.6169 89.7338 26.2302 89.7338 30.3508ZM75.2132 18.9402C79.7144 18.9402 82.1246 17.2283 82.1246 13.5516C82.1246 9.87484 79.7145 8.2892 75.2132 8.2892H68.0494V18.9402H75.2132ZM68.0495 35.8044H76.42C80.8563 35.8044 83.2648 33.5855 83.2648 30.0982C83.2648 26.5478 80.8563 24.3937 76.42 24.3937H68.0495V35.8044ZM125.483 13.3603H131.823V16.0232C133.345 14.248 136.135 12.7272 139.432 12.7272C145.833 12.7272 149.383 16.9739 149.383 23.1871V41.5106H143.046V24.2659C143.046 20.7786 141.332 18.4965 137.72 18.4965C134.992 18.4965 132.521 20.2085 131.823 22.9976V41.5106H125.483L125.483 13.3603ZM158.322 18.6227H153.883V13.3603H158.322V5.81756H164.66V13.3603H171.001V18.6227H164.66V33.2047C164.66 35.4867 165.927 36.5007 168.021 36.5007C169.289 36.5007 170.747 35.9954 171.635 35.3604V41.1298C170.558 41.7631 168.844 42.1438 166.881 42.1438C161.871 42.1438 158.323 39.481 158.323 33.9028L158.322 18.6227ZM184.44 41.5105H178.099V0.300781H184.44V41.5105ZM225.073 52.2879L229.069 42.2702L218.163 13.3603H224.946L232.3 34.0924L239.529 13.3603H246.059L231.223 52.2879H225.073ZM119.653 26.6111C119.653 18.3701 115.341 12.727 107.419 12.727C99.7468 12.727 94.23 19.0665 94.23 27.4986C94.23 36.1851 99.6835 42.1438 107.544 42.1438C114.327 42.1438 118.448 38.3391 119.4 32.761H113.566C112.869 35.4869 110.587 36.8182 107.544 36.8182C103.287 36.8182 100.355 33.8413 100.355 27.3988C100.355 21.096 103.224 18.0525 107.481 18.0525C111.348 18.0525 113.313 20.8433 113.376 24.2657H103.716C103.533 25.2032 103.435 26.2454 103.435 27.3988C103.435 27.9208 103.456 28.4162 103.493 28.8948H119.652L119.653 26.6111ZM215.758 26.6111C215.758 18.3701 211.447 12.727 203.521 12.727C195.851 12.727 190.334 19.0665 190.334 27.4986C190.334 36.1851 195.786 42.1438 203.648 42.1438C210.433 42.1438 214.551 38.3391 215.502 32.761H209.671C208.973 35.4869 206.689 36.8182 203.648 36.8182C199.391 36.8182 196.461 33.8413 196.461 27.3988C196.461 21.096 199.326 18.0525 203.585 18.0525C207.451 18.0525 209.419 20.8433 209.479 24.2657H199.821C199.635 25.2032 199.537 26.2454 199.537 27.3988C199.537 27.9208 199.559 28.4162 199.595 28.8948H215.758L215.758 26.6111Z" fill="white"/>
</g>
<defs>
<clipPath id="clip0_189_3093">
<rect width="246.06" height="51.9872" fill="white" transform="translate(0 0.300781)"/>
</clipPath>
</defs>
</svg>
