<svg width="221" height="73" viewBox="0 0 221 73" fill="none" xmlns="http://www.w3.org/2000/svg">
<g clip-path="url(#clip0_189_3107)">
<path d="M92.1499 52.8251C91.9513 52.8251 91.7966 52.9575 91.598 52.9575C91.4217 52.9575 91.2231 52.7373 90.8036 52.7373C88.7291 52.7373 86.8094 53.2445 85.2422 53.7741C85.1098 53.818 85.0437 53.8626 84.9775 54.0389C84.5803 55.1204 84.1831 56.0695 83.7636 57.1509C83.7636 57.2171 83.7852 57.2394 83.8514 57.2394C84.8451 56.8861 85.9928 56.3781 87.0958 56.3781C87.6254 56.3781 88.1773 56.5105 88.7515 56.8199C88.994 56.9523 89.0379 57.3056 89.0379 57.5258C89.0379 57.7906 88.1557 57.9676 87.9787 57.9676C87.7139 57.9676 87.4491 57.9014 87.2505 57.9014C85.882 57.9014 84.6019 58.6073 83.4765 58.8944C83.3003 58.9383 82.903 59.0491 82.8146 59.2477C81.8655 61.366 81.1373 62.9771 81.1373 64.1471C81.1373 64.5004 81.446 64.8975 81.6892 64.8975C82.0864 64.8975 82.8585 64.7429 83.4765 64.478C84.1385 64.1909 84.6242 64.0146 84.9775 63.86C86.1468 63.3527 87.2282 62.2712 88.5529 62.2712C88.6407 62.2712 88.7292 62.2712 88.7731 62.3374C88.8616 62.4698 89.4574 62.7569 89.4574 63.0217C89.4574 63.1757 89.4135 63.2864 89.325 63.3081C89.1703 63.3526 89.0163 63.4405 88.8393 63.5952C88.5968 63.816 88.3759 63.9708 88.2435 64.037C86.2352 65.1177 84.0946 66.2654 81.0934 66.2654C80.9387 66.2654 79.8133 65.979 79.3938 65.3609C79.2391 65.1401 79.2168 64.522 79.2168 64.2356C79.2168 62.4259 80.0335 60.8588 80.6076 59.2477C80.5415 59.1815 80.3205 58.9383 80.3205 58.5634C80.3205 58.475 80.3205 58.3649 80.3644 58.2987C80.4306 58.1886 80.5191 58.1663 81.0048 58.0339C81.1811 57.9893 81.2257 57.9677 81.3358 57.7245C81.9539 56.3566 82.2626 55.6284 82.4396 54.9441C82.4396 54.8557 82.4173 54.8333 82.3511 54.8333C82.2187 54.8333 81.8431 55.0103 81.5344 55.0103C81.402 55.0103 81.2473 54.9881 81.1149 54.9219C80.8062 54.7672 80.5414 54.0836 80.5414 53.8181C80.5414 53.708 80.5853 53.6857 80.6738 53.6641C82.0863 53.3108 83.3663 52.7812 84.668 52.2955C85.5508 51.9645 88.442 51.1702 90.6488 51.1702C90.8697 51.1702 91.2669 51.2364 91.3993 51.3026C91.9289 51.5673 92.4808 52.0085 92.4808 52.4063C92.4808 52.7373 92.393 52.8251 92.1499 52.8251Z" fill="white"/>
<path d="M93.9367 58.8053C93.9806 59.1809 94.0245 59.2248 94.0907 59.2248C94.1791 59.2248 94.3115 59.0924 94.4216 59.0039C95.5693 58.0771 96.717 57.2388 97.8423 56.3998C98.0194 56.2674 98.0632 56.2452 98.3503 56.2452C98.5712 56.2452 98.836 56.3113 98.9684 56.4884C99.167 56.7531 99.3872 56.9079 99.3872 57.2827C99.3872 57.3928 99.167 57.459 99.0562 57.5252C97.4236 58.4743 95.9449 59.6443 94.5764 60.8804C94.1353 61.2776 94.1353 61.2992 94.1353 61.7187C94.1353 63.4183 94.4001 64.8523 94.4001 66.331C94.4001 66.8829 94.3778 67.1261 94.2677 67.9204C94.2454 68.0751 94.0029 68.1629 93.782 68.1629C93.605 68.1629 93.4949 68.119 93.3402 68.119C93.2078 68.119 93.1639 68.0089 92.9214 67.8758C92.7228 67.7657 92.5242 67.6556 92.4796 67.4124C92.4573 67.3023 92.4357 67.1476 92.4357 67.0152C92.4357 66.7065 92.5242 66.3532 92.6343 66.1323C92.7005 66 92.7228 65.956 92.7228 65.9121C92.7228 65.8013 92.7005 65.6913 92.6782 65.4926C92.5904 64.7645 92.5681 64.1025 92.4796 63.3959C92.4357 63.0649 92.4134 63.0426 92.3695 63.0426C92.3249 63.0426 92.281 63.0872 92.1486 63.2858C91.9278 63.6384 90.9348 64.4997 90.7801 65.1171C90.7362 65.2941 90.5815 65.4265 90.3829 65.5811C90.1843 65.7351 89.9641 65.8236 89.677 65.8236C89.6108 65.8236 89.3676 65.6473 89.1474 65.4264C88.9265 65.2055 88.8164 65.0508 88.8164 64.8306C88.8164 64.7421 88.8164 64.7198 89.0366 64.455C90.0303 63.2858 91.1556 62.0935 92.1263 60.9904C92.3033 60.7918 92.3033 60.7472 92.3033 60.4608C92.3033 60.019 92.3033 58.1878 91.8176 57.2164C91.619 56.8192 91.5967 56.9739 91.4866 56.8192C91.3982 56.7091 91.3982 56.5098 91.3982 56.422C91.3982 56.0687 91.9278 55.9363 92.2587 55.9363C92.6782 55.9363 92.8768 56.0464 93.12 56.2896C93.5611 56.7307 93.6935 57.1064 93.9367 58.8053Z" fill="white"/>
<path d="M100.887 58.4089C100.865 58.4751 100.843 58.5636 100.865 58.5636C100.909 58.5636 100.998 58.4535 101.041 58.4089C102.013 57.2835 102.984 56.3122 103.977 55.7826C104.198 55.6725 104.264 55.6502 104.33 55.6502C104.97 55.6502 105.632 56.0474 106.184 56.4007C106.383 56.533 106.625 56.7316 106.625 57.2835C106.625 58.0117 106.559 58.4312 106.471 58.8284C106.427 59.0047 106.493 59.1593 106.36 59.5349C105.301 62.4922 104.661 64.0587 103.204 65.3834C103.05 65.5158 102.786 65.5374 102.586 65.5374C102.079 65.5374 101.307 65.1179 101.086 64.8977C100.534 64.3897 100.203 63.8385 99.9384 63.2866C99.9161 63.2204 99.8722 63.1758 99.806 63.1758C99.7614 63.1758 99.7175 63.1981 99.6736 63.2866C98.305 65.8683 97.5545 67.7888 96.7825 71.0332C96.6716 71.4966 96.8264 71.8492 96.5177 71.96C96.2306 72.0701 95.9881 72.0924 95.7449 72.0924C95.4801 72.0924 95.2815 72.0262 95.0606 71.783C94.9282 71.629 94.7742 71.6067 94.752 71.2757C94.752 71.1872 94.7742 71.0771 94.8621 70.79C96.1644 66.531 98.9893 60.3509 99.7614 55.6501C99.8276 55.2752 99.8945 55.2529 100.027 55.209C100.292 55.1205 100.534 54.9658 100.865 54.9658C101.219 54.9658 101.593 55.1644 101.593 55.4076C101.593 56.3344 101.174 57.2835 100.887 58.4089ZM101.041 61.0352C100.887 61.2784 100.887 61.3885 100.887 61.6756C100.887 62.1606 101.593 64.0371 102.145 64.0371C102.211 64.0371 102.255 64.0148 102.322 63.9486C103.05 63.2644 103.889 61.0798 103.955 60.8143C104.772 58.3211 104.815 57.372 104.815 57.3058C104.815 57.2396 104.749 57.2396 104.728 57.2396C104.705 57.2396 104.661 57.2396 104.573 57.2835C103.028 58.2765 101.924 59.6451 101.041 61.0352Z" fill="white"/>
<path d="M133.703 55.584C133.24 55.0983 132.754 54.7896 131.54 54.7896C131.121 54.7896 130.216 55.1868 129.576 56.2021C129.481 56.3529 129.397 56.5198 129.319 56.6914C129.295 56.705 129.273 56.715 129.245 56.7317C128.517 57.1735 127.259 57.6369 126.288 57.8355C126.068 57.8794 125.803 57.9232 125.737 57.9232C125.692 57.9232 125.648 57.9017 125.648 57.8571C125.648 57.7909 125.936 56.9526 126.156 56.4892C126.862 54.9882 127.922 53.4872 128.209 51.7662C128.231 51.6337 128.231 51.5675 128.231 51.5237C128.231 51.4574 128.142 51.4128 128.032 51.3689C127.767 51.2589 127.392 51.1926 127.193 51.1926C126.972 51.1926 126.929 51.3027 126.575 51.3027C126.487 51.3027 126.465 51.3027 126.333 51.5898C125.582 53.2009 124.987 54.9221 124.457 56.2683C124.28 56.7317 124.17 57.0627 124.104 57.3059C124.092 57.3596 124.072 57.4055 124.048 57.4458C124.025 57.3425 123.971 57.2393 123.905 57.1734C123.53 56.7317 122.912 56.5554 122.294 56.5554C122.228 56.5554 122.095 56.577 122.029 56.5992C121.235 56.864 120.175 57.4822 118.961 58.4089C118.785 58.5636 118.696 58.586 118.675 58.586C118.608 58.586 118.608 58.5637 118.608 58.4974C118.608 58.4536 118.63 58.409 118.696 58.1442C118.785 57.8794 118.829 57.6368 118.829 57.3936C118.829 56.864 118.696 56.4669 118.498 56.1582C118.432 56.0474 118.079 55.915 117.77 55.915C117.262 55.915 116.909 56.2244 116.909 56.4007C116.931 56.5992 117.108 56.7763 117.108 56.9086C117.108 56.9525 117.085 57.0626 117.064 57.2613C116.805 58.5536 116.404 59.7865 115.992 61.0126C115.924 61.0323 115.837 61.0703 115.719 61.146C114.394 61.9843 113.467 63.1758 111.945 63.9926C110.952 64.5222 110.62 64.6107 110.245 64.6107C110.024 64.6107 109.804 64.5667 109.561 64.4343C109.362 64.3236 109.031 63.8602 109.031 63.5069C109.031 63.4407 109.054 63.3968 109.164 63.3306C111.04 62.293 112.761 60.3733 114.284 58.6521C114.593 58.2988 114.77 58.0564 114.99 57.6146C115.255 57.085 115.498 56.5992 115.498 56.0258C115.498 55.1429 115.034 54.7457 114.791 54.6573C114.35 54.5025 114.041 54.4148 113.445 54.4148C112.364 54.4148 111.459 55.0106 111.084 55.4078C109.406 57.1951 107.906 59.1371 107.288 61.3885C107.199 61.6973 107.178 61.9181 107.178 62.1168C107.178 62.5363 107.288 63.3745 107.443 63.8163C107.685 64.5444 108.104 65.0963 108.546 65.3388C108.7 65.4273 109.472 65.7806 109.958 65.9569C110.311 66.0893 110.532 66.1115 110.797 66.1115C111.084 66.1115 111.194 66.1115 111.591 65.8907C113.107 65.0532 114.03 64.3698 114.687 63.7876C114.495 64.086 114.349 64.3797 114.349 64.6768C114.371 64.9416 114.547 65.295 114.768 65.5158C114.923 65.6922 115.077 65.957 115.43 65.9793C115.519 65.9793 115.717 65.913 115.827 65.7806C115.982 65.6699 116.225 65.3834 116.379 64.7208C117.151 61.4771 119.535 59.5127 121.941 58.3873C121.995 58.363 122.04 58.3463 122.08 58.3335C122.344 58.6714 122.576 59.0359 123.132 59.3141C123.221 59.358 123.243 59.4019 123.243 59.4465C123.243 59.4904 123.221 59.5349 123.198 59.6012C122.493 61.3001 122.095 63.2204 121.543 64.8532C121.477 65.0517 121.455 65.3388 121.455 65.5158C121.455 65.7145 121.521 65.913 121.698 66.0454C121.874 66.1778 122.228 66.2879 122.493 66.2879C122.581 66.2879 122.735 66.2656 122.824 66.2218C123.132 66.067 123.353 65.4935 123.375 65.295C123.508 64.1912 124.258 62.3153 124.391 61.5871C124.435 61.3446 124.567 61.1237 124.633 60.8812C124.722 60.5495 124.832 60.1308 125.008 59.8214C125.097 59.6674 125.229 59.5566 125.428 59.4904C125.886 59.3375 127.723 58.9264 128.81 58.5116C128.793 58.6547 128.781 58.7879 128.781 58.8946C128.781 59.3357 129.179 62.6462 129.488 64.1034C129.598 64.6545 129.598 64.6992 129.598 64.787C129.598 64.8755 129.51 64.964 129.377 64.964C129.267 64.964 129.157 64.9194 128.936 64.7208C128.274 64.1251 128.009 63.2867 127.501 62.6025C127.303 62.3377 127.104 62.2931 126.663 62.2931C126.2 62.2931 125.869 62.7788 125.869 63.1098C125.869 63.1759 125.935 63.3307 126.001 63.4407C126.729 64.6546 127.766 65.8022 129.223 66.3981C129.333 66.4427 129.576 66.4866 129.775 66.4866C130.371 66.4866 130.768 66.0893 131.165 65.6922C131.254 65.6037 131.342 65.4712 131.342 65.295C131.342 64.3898 130.834 61.9181 130.636 60.2632C130.591 59.9761 130.481 58.9832 130.481 58.8508C130.481 58.586 130.503 58.4313 130.525 58.2766C130.702 57.2613 131.717 56.0035 131.871 56.0035C132.048 56.0035 132.268 56.1582 132.357 56.3122C132.445 56.4669 132.512 56.7317 132.512 56.9086C132.512 57.2836 132.335 57.5923 132.136 57.9232C132.092 57.9894 132.07 58.0564 132.07 58.1002C132.07 58.4313 132.202 58.6521 132.401 58.8061C132.555 58.9385 132.931 59.0933 133.174 59.0933C133.284 59.0933 133.306 59.071 133.482 58.8508C133.792 58.4536 134.123 57.8571 134.123 57.0188C134.123 56.5771 134.012 55.915 133.703 55.584ZM112.607 56.246C112.828 56.0474 112.805 56.1136 113.048 55.9596C113.246 55.8272 113.379 55.761 113.511 55.761C113.643 55.761 113.643 55.8488 113.643 56.0258C113.643 56.423 113.467 56.71 113.246 57.0411C112.96 57.4821 113.048 57.5484 112.717 57.9455C111.724 59.1371 110.642 60.351 109.34 61.3446C109.274 61.3885 109.23 61.4108 109.186 61.4108C109.164 61.4108 109.141 61.3885 109.141 61.3C109.627 59.3357 111.172 57.5261 112.607 56.246Z" fill="white"/>
<path d="M144.779 52.781C145.265 52.781 145.794 52.1852 146.192 51.6995C146.28 51.5894 146.302 51.4347 146.302 51.3023C146.302 51.0814 146.258 50.8166 146.038 50.5741C145.883 50.3972 145.463 50.2871 145.11 50.2871C144.647 50.2871 144.249 50.3972 144.029 50.662C143.83 50.9052 143.742 51.28 143.742 51.5894C143.742 51.8319 143.786 52.119 143.896 52.3392C144.007 52.5385 144.338 52.781 144.779 52.781Z" fill="white"/>
<path d="M152.547 58.1885C152.657 58.0115 152.768 57.7028 152.768 57.6143C152.768 57.3495 152.569 57.0408 152.326 57.0186C151.973 56.9963 151.863 56.7976 151.532 56.7976C151.245 56.7976 151.157 56.8638 150.76 57.7028C150.274 58.7396 148.641 59.6226 145.661 63.86C145.507 64.0808 145.419 64.147 145.286 64.147C145.22 64.147 145.22 64.0146 145.22 63.9261C145.22 63.86 145.507 62.7785 145.661 62.3813C146.39 60.5716 146.92 59.5124 147.228 58.9383C147.78 57.9229 148.398 57.2171 148.641 56.9523C149.016 56.5551 149.126 56.1579 149.126 55.9148C149.126 55.8047 149.06 55.6283 149.016 55.5176C148.928 55.3189 148.641 55.1865 148.133 55.1865C147.802 55.1865 147.537 55.2527 147.361 55.4075C147.162 55.5837 147.184 55.6283 147.007 55.8931C146.037 57.3718 145.529 58.431 144.867 59.9535C144.492 60.8141 143.874 62.3151 143.785 62.9554C143.774 63.0388 143.758 63.1104 143.74 63.1787C143.434 63.1934 143.264 63.3121 142.771 63.6614C141.888 64.2794 141.645 64.4118 141.16 64.4118C140.785 64.4118 140.762 63.9045 140.762 63.7059C140.762 63.3742 140.917 62.536 141.292 61.543C141.601 60.7264 142.219 59.2254 142.594 58.4087C143.102 57.3272 144.007 56.7761 144.007 55.606C144.007 55.4075 143.941 55.3412 143.83 55.2527C143.676 55.1204 143.389 55.0764 143.168 55.0764C142.748 55.0764 142.285 55.2088 142.065 55.6722C141.248 57.3718 140.608 58.9606 139.923 60.5715C139.791 60.8809 139.703 61.2558 139.549 61.6753C139.284 62.4258 139.195 62.9108 139.195 63.4627C139.195 63.7721 139.218 64.0808 139.306 64.3895C139.549 65.2062 140.299 66.1329 140.961 66.1329C141.954 66.1329 142.771 65.4932 143.234 65.0737L143.593 64.7411C143.617 64.8146 143.644 64.8802 143.675 64.9191C143.962 65.2724 144.999 65.9344 145.264 65.9344C145.463 65.9344 145.904 65.8905 146.081 65.6919C146.39 65.3609 146.566 65.3832 147.03 64.7205C147.559 63.9707 148.155 63.2202 149.06 62.0279C149.126 61.9401 149.148 61.9401 149.193 61.9401C149.237 61.9401 149.259 61.9841 149.259 62.0279C149.259 62.0942 149.06 62.4697 149.06 63.7721C149.06 64.3233 149.17 64.7867 149.435 65.14C149.722 65.5372 149.987 65.6257 150.296 65.9128C150.561 66.1553 151.267 66.2215 151.443 66.2215C151.863 66.2215 152.018 65.8465 152.018 65.6919C152.018 65.471 151.863 65.317 151.687 65.1846C151.532 65.0737 150.98 64.7867 150.914 64.3895C150.87 64.1693 150.738 63.8383 150.738 63.4404C150.738 62.9993 150.87 61.8955 151.002 61.4545C151.333 60.3291 151.753 59.4901 152.547 58.1885Z" fill="white"/>
<path d="M170.069 52.7149C170.091 52.825 170.091 52.8912 170.091 52.9574C170.091 53.0236 170.091 53.1344 169.914 53.5754C169.606 54.3482 169.341 54.7893 169.142 55.5175C169.076 55.7607 168.789 55.937 168.458 55.937C168.259 55.937 167.994 55.8708 167.817 55.8485C167.641 55.8269 167.089 55.4513 167.089 55.1865C167.089 54.3482 167.774 54.0388 167.862 53.3992C167.884 53.2445 168.127 53.002 168.127 52.7372C168.127 52.494 168.082 52.4062 167.928 52.4062C167.376 52.4062 166.45 52.9135 166.052 53.2884C165.191 54.0835 164.993 54.3483 163.58 56.268C162.345 57.9453 161.418 60.1521 160.777 62.2489C160.689 62.536 160.667 63.3526 160.667 63.5289C160.667 63.7275 160.821 64.1909 160.954 64.3017C161.329 64.6104 161.55 64.9414 161.903 64.9414C163.161 64.9414 164.839 63.5951 166.273 62.1604C166.626 61.8078 166.714 61.7193 167.112 61.7193H167.465C167.751 61.7193 168.016 61.8078 168.215 62.1388C168.325 62.3151 168.348 62.4036 168.348 62.4921C168.348 62.6022 168.237 62.6461 168.061 62.8231C166.427 64.3895 164.905 66.3316 162.543 66.3316C162.035 66.3316 161.197 66.1992 160.821 66.0229C160.159 65.7142 159.122 64.9414 159.034 64.3234C158.968 63.8161 158.924 63.3743 158.924 62.9771C158.924 62.1165 159.166 60.9026 159.21 60.7702C160.446 57.2833 162.565 53.2884 165.942 51.3248C166.206 51.1701 167.178 50.9492 167.774 50.9492C168.104 50.9492 168.392 50.9931 168.723 51.1478C168.855 51.214 168.987 51.2802 169.031 51.3464C169.252 51.6774 169.937 52.0968 170.069 52.7149Z" fill="white"/>
<path d="M178.697 56.6423C178.807 56.6423 179.138 56.6646 179.315 56.9294C179.359 56.9956 179.359 57.0179 179.359 57.0618C179.359 57.1503 179.315 57.2388 179.27 57.305C178.3 58.629 177.13 60.2839 176.71 61.9834C176.556 62.6015 176.402 63.2635 176.402 63.9478C176.402 64.5213 176.534 65.0955 176.865 65.6027C176.887 65.6473 176.909 65.6912 176.909 65.7351C176.909 65.7797 176.821 65.9999 176.446 66.0445C176.313 66.0661 176.158 66.1323 176.026 66.1323C175.695 66.1323 175.21 65.9783 175.077 65.6913C174.791 65.0509 174.702 64.4112 174.702 63.7931C174.702 63.1311 174.791 62.7562 174.791 62.6901C174.791 62.6016 174.791 62.5792 174.702 62.5792C174.614 62.5792 174.415 62.7339 174.172 62.9764L172.981 64.0802C171.833 65.1617 171.127 65.4704 170.355 65.7352C170.222 65.7798 170.09 65.8237 170.001 65.8237C169.759 65.8237 169.494 65.669 168.456 64.8307C168.346 64.7422 167.971 64.3673 167.971 63.5283C167.971 62.8002 168.214 61.8734 169.295 60.2623C170.597 58.3203 171.811 57.4374 172.473 56.9517C173.554 56.1573 174.702 55.5832 176.004 55.2083C176.158 55.1637 176.335 55.1421 176.49 55.1421C176.997 55.1421 177.438 55.3846 177.836 55.7818C177.946 55.8926 178.123 56.0912 178.167 56.2236C178.255 56.4438 178.454 56.6423 178.697 56.6423ZM176.071 56.7308C173.996 57.8346 172.363 59.0484 171.105 60.571C170.178 61.6963 169.449 62.9987 169.449 63.6384C169.449 63.9039 169.538 64.2349 169.935 64.2349C170.111 64.2349 170.619 63.9917 171.017 63.6168C173.069 61.6963 175.386 60.2177 176.512 58.1216C176.666 57.8345 176.909 57.5252 177.152 57.2827C177.218 57.2165 177.262 57.0841 177.262 56.9517C177.262 56.797 177.13 56.5099 176.755 56.5099C176.689 56.5099 176.357 56.5761 176.071 56.7308Z" fill="white"/>
<path d="M194.629 60.9906C194.54 60.9906 194.43 60.9906 194.188 61.1453C192.863 61.9836 191.936 63.1751 190.413 63.9918C189.42 64.5214 189.089 64.6099 188.714 64.6099C188.493 64.6099 188.273 64.566 188.03 64.4336C187.831 64.3228 187.5 63.8595 187.5 63.5062C187.5 63.4399 187.522 63.3961 187.632 63.3299C189.508 62.2923 191.23 60.3726 192.753 58.6514C193.061 58.2981 193.238 58.0556 193.459 57.6138C193.724 57.0842 193.967 56.5985 193.967 56.025C193.967 55.1422 193.503 54.745 193.26 54.6566C192.819 54.5018 192.51 54.4141 191.914 54.4141C190.833 54.4141 189.928 55.0098 189.553 55.407C188.994 56.0029 188.455 56.6166 187.961 57.2527C187.942 57.2227 187.921 57.1953 187.898 57.1727C187.523 56.731 186.905 56.5547 186.287 56.5547C186.221 56.5547 186.088 56.5763 186.022 56.5985C185.228 56.8633 184.168 57.4815 182.954 58.4082C182.778 58.5629 182.689 58.5853 182.668 58.5853C182.601 58.5853 182.601 58.563 182.601 58.4967C182.601 58.4529 182.623 58.4083 182.689 58.1435C182.778 57.8787 182.822 57.6362 182.822 57.3929C182.822 56.8633 182.689 56.4662 182.491 56.1575C182.425 56.0467 182.072 55.9143 181.763 55.9143C181.255 55.9143 180.902 56.2237 180.902 56.4C180.924 56.5985 181.101 56.7756 181.101 56.9079C181.101 56.9518 181.078 57.0619 181.057 57.2606C180.703 59.0263 180.085 60.6813 179.533 62.3592C179.269 63.1974 178.342 63.9256 178.342 64.6761C178.364 64.9409 178.54 65.2942 178.761 65.5151C178.916 65.6914 179.07 65.9562 179.423 65.9785C179.512 65.9785 179.71 65.9123 179.82 65.7799C179.975 65.6691 180.218 65.3827 180.372 64.7201C181.144 61.4764 183.528 59.5119 185.934 58.3866C186.132 58.2981 186.221 58.2981 186.287 58.2981C186.535 58.2981 186.811 58.4389 187.082 58.495C186.502 59.4052 186.038 60.3643 185.757 61.3878C185.668 61.6965 185.647 61.9174 185.647 62.116C185.647 62.5355 185.757 63.3738 185.911 63.8156C186.154 64.5437 186.573 65.0956 187.015 65.3381C187.169 65.4266 187.941 65.7799 188.427 65.9562C188.78 66.0885 189.001 66.1108 189.266 66.1108C189.553 66.1108 189.663 66.1108 190.06 65.89C193.415 64.0364 193.878 62.9326 194.937 62.0275C195.048 61.9397 195.048 61.8073 195.048 61.7188C195.048 61.6526 195.07 61.6303 195.07 61.4317C195.07 61.2115 194.761 60.9906 194.629 60.9906ZM191.075 56.2453C191.296 56.0467 191.274 56.1129 191.517 55.9589C191.715 55.8265 191.848 55.7603 191.98 55.7603C192.112 55.7603 192.112 55.8481 192.112 56.0251C192.112 56.4223 191.936 56.7094 191.715 57.0404C191.429 57.4814 191.517 57.5477 191.186 57.9448C190.193 59.1364 189.111 60.3503 187.809 61.3439C187.743 61.3878 187.699 61.4101 187.655 61.4101C187.632 61.4101 187.61 61.3878 187.61 61.2993C188.096 59.335 189.641 57.5254 191.075 56.2453Z" fill="white"/>
<path d="M198.39 64.4425C198.39 64.5749 198.368 64.7296 198.279 64.8397C197.882 65.3254 197.353 65.9212 196.867 65.9212C196.426 65.9212 196.095 65.6787 195.984 65.4794C195.874 65.2592 195.83 64.9721 195.83 64.7296C195.83 64.4202 195.918 64.0453 196.116 63.8021C196.337 63.5373 196.735 63.4272 197.198 63.4272C197.551 63.4272 197.971 63.5373 198.125 63.7144C198.346 63.9568 198.39 64.2216 198.39 64.4425Z" fill="white"/>
<path d="M64.2008 0.714355H58.3259V36.5052H64.2008V0.714355Z" fill="white"/>
<path d="M69.4023 36.5052H75.2772V9.94633H69.4023V36.5052ZM69.4023 6.6377H75.2772V0.714355H69.4023V6.6377Z" fill="white"/>
<path d="M86.355 13.6482C87.8852 10.8839 90.6992 9.354 94.4017 9.354C100.819 9.354 103.436 13.5009 103.436 19.8197V36.5052H97.5611V21.2507C97.5611 17.6466 97.0179 14.1425 92.526 14.1425C88.0341 14.1425 86.355 17.5981 86.355 22.3855V36.5052H80.4805V9.94604H86.355V13.6482Z" fill="white"/>
<path d="M113.393 20.609H127.216C127.068 16.4622 123.908 13.9444 120.453 13.9444C117.688 13.9444 113.887 15.5739 113.393 20.609ZM113.393 24.9033C113.788 29.8406 117.244 32.2591 120.601 32.2591C123.661 32.2591 126.08 31.0251 127.117 28.5573H132.893C131.659 32.8019 127.71 37.1473 120.848 37.1473C112.307 37.1473 107.42 30.63 107.42 23.0275C107.42 15.0311 112.899 9.354 120.453 9.354C128.598 9.354 133.683 15.969 133.189 24.9033H113.393Z" fill="white"/>
<path d="M41.2264 32.3584C44.929 32.3584 48.2365 29.3959 48.2365 23.2753C48.2365 17.1546 44.929 14.1425 41.2264 14.1425C37.5238 14.1425 34.2167 17.1534 34.2167 23.2753C34.2167 29.3971 37.5238 32.3584 41.2264 32.3584ZM54.3083 23.2753C54.3083 32.8512 47.6933 37.1469 41.2264 37.1469C34.7595 37.1469 28.1445 32.8512 28.1445 23.2753C28.1445 13.6993 34.7595 9.354 41.2264 9.354C47.6933 9.354 54.3083 13.6978 54.3083 23.2753Z" fill="white"/>
<path d="M17.8012 0.770264V24.4659C17.8012 29.4518 15.6289 32.0676 11.8283 32.0676C9.22671 32.0676 7.37242 30.8693 6.44058 28.5575H0C1.313 33.9253 5.38582 37.202 11.8283 37.202C19.7266 37.202 24.0704 32.2157 24.0704 24.4659V0.770264H17.8012Z" fill="white"/>
<path d="M132.318 3.6446V5.08502H133.156C133.876 5.08502 134.164 4.83618 134.164 4.37797C134.164 3.85434 133.758 3.6446 133.116 3.6446H132.318ZM132.318 5.9883V7.93919H131.153V2.71538H132.894C134.386 2.71538 135.329 3.00332 135.329 4.36481C135.329 5.00609 135.015 5.49061 134.386 5.76577L135.617 7.93919H134.321L133.247 5.9883H132.318ZM137.057 5.51693C137.057 3.10782 135.394 1.49749 133.156 1.49749C130.956 1.49749 129.254 3.10782 129.254 5.51693C129.254 7.88657 130.956 9.51005 133.156 9.51005C135.394 9.51005 137.057 7.88657 137.057 5.51693ZM138.052 5.51693C138.052 8.42334 135.865 10.4133 133.156 10.4133C130.432 10.4133 128.246 8.42334 128.246 5.51693C128.246 2.5842 130.432 0.581055 133.156 0.581055C135.865 0.581055 138.052 2.5842 138.052 5.51693Z" fill="white"/>
<path d="M178.433 10.3749H176.824V3.10128H178.433V10.3749ZM178.433 2.19594H176.824V0.573242H178.433V2.19594Z" fill="white"/>
<path d="M196.427 14.7549H194.818V24.5569H196.427V14.7549Z" fill="white"/>
<path d="M185.003 5.58958C184.868 4.81889 184.192 4.27775 183.313 4.27775C182.313 4.27775 181.407 5.02161 181.407 6.73847C181.407 8.46894 182.326 9.21279 183.272 9.21279C184.057 9.21279 184.854 8.86111 185.058 7.88773H186.626C186.302 9.59136 184.801 10.5511 183.246 10.5511C181.136 10.5511 179.744 8.9152 179.744 6.75211C179.744 4.58903 181.15 2.93945 183.313 2.93945C184.895 2.93945 186.301 3.96692 186.571 5.58962L185.003 5.58958Z" fill="white"/>
<path d="M189.075 8.33347C189.075 8.96914 189.602 9.34771 190.413 9.34771C191.603 9.34771 192.306 8.73962 192.306 7.50909V6.95469C190.008 7.17102 189.075 7.49507 189.075 8.33347ZM192.266 5.83268V5.69728C192.266 4.45349 191.549 4.07496 190.751 4.07496C189.94 4.07496 189.332 4.50758 189.291 5.38604H187.709C187.817 3.89912 189.048 2.88525 190.806 2.88525C192.549 2.88525 193.915 3.68279 193.874 6.00815C193.874 6.37344 193.847 7.22507 193.847 7.88762C193.847 8.80695 193.928 9.76672 194.063 10.3752H192.59C192.536 10.0639 192.482 9.88847 192.455 9.38815C191.995 10.1725 191.13 10.551 190.062 10.551C188.479 10.551 187.371 9.69939 187.371 8.37433C187.371 6.56255 189.602 6.10306 192.266 5.83268Z" fill="white"/>
<path d="M197.103 0.573242H195.494V10.3753H197.103V0.573242Z" fill="white"/>
<path d="M169.755 6.7382C169.755 8.27959 170.526 9.23936 171.594 9.23936C172.648 9.23936 173.473 8.41457 173.473 6.7382C173.473 5.06182 172.648 4.25064 171.594 4.25064C170.526 4.25064 169.755 5.21041 169.755 6.7382ZM175.014 0.572998V10.375H173.405V9.41524C172.973 10.1315 172.216 10.5509 171.242 10.5509C169.525 10.5509 168.078 9.07716 168.078 6.7382C168.078 4.41287 169.525 2.93918 171.242 2.93918C172.216 2.93918 172.973 3.35819 173.405 4.07479V0.572998H175.014Z" fill="white"/>
<path d="M165.537 6.02186C165.496 4.88662 164.631 4.19686 163.685 4.19686C162.928 4.19686 161.887 4.64308 161.751 6.02186H165.537ZM163.726 9.21279C164.563 9.21279 165.226 8.87472 165.51 8.19856H167.091C166.754 9.3618 165.672 10.5511 163.793 10.5511C161.454 10.5511 160.115 8.76657 160.115 6.68441C160.115 4.49408 161.616 2.93945 163.685 2.93945C165.916 2.93945 167.308 4.75123 167.173 7.19834H161.751C161.859 8.55028 162.806 9.21279 163.726 9.21279Z" fill="white"/>
<path d="M150.314 2.43948V10.3753H148.637V0.573242H151.301L153.68 8.38798L156.046 0.573242H158.709V10.3753H157.033V2.43948L154.546 10.3753H152.801L150.314 2.43948Z" fill="white"/>
<path d="M214.274 25.692H214.882C215.586 25.692 215.883 25.6379 216.207 24.6913L216.289 24.5159L213.652 17.2827H215.41L217.06 22.5014L218.709 17.2827H220.358L217.803 24.5431C217.127 26.4222 216.64 26.9225 215.004 26.9225H214.274V25.692Z" fill="white"/>
<path d="M207.501 20.7714C207.501 22.2583 208.271 23.164 209.339 23.164C210.394 23.164 211.218 22.407 211.218 20.7714C211.218 19.1491 210.394 18.4052 209.339 18.4052C208.271 18.4052 207.501 19.3109 207.501 20.7714ZM212.76 17.2828V23.8266C212.76 25.0163 212.462 25.8547 211.881 26.3955C211.3 26.9362 210.435 27.1794 209.299 27.1794C207.703 27.1794 206.433 26.5441 206.189 24.9486H207.785C207.933 25.6248 208.379 25.9088 209.339 25.9088C210.056 25.9088 210.516 25.7057 210.786 25.3812C211.056 25.0704 211.151 24.6241 211.151 24.1511V23.2994C210.718 24.0161 209.961 24.4351 208.988 24.4351C207.27 24.4351 205.824 23.0423 205.824 20.7714C205.824 18.5005 207.27 17.1206 208.988 17.1206C209.961 17.1206 210.718 17.54 211.151 18.2562V17.2828H212.76Z" fill="white"/>
<path d="M203.255 20.9333C203.255 19.2569 202.349 18.4321 201.335 18.4321C200.321 18.4321 199.415 19.2569 199.415 20.9333C199.415 22.6096 200.321 23.4208 201.335 23.4208C202.349 23.4208 203.255 22.6101 203.255 20.9333ZM201.335 24.7323C199.564 24.7323 197.752 23.5562 197.752 20.9333C197.752 18.3103 199.564 17.1206 201.335 17.1206C203.106 17.1206 204.918 18.3107 204.918 20.9333C204.918 23.5558 203.106 24.7323 201.335 24.7323Z" fill="white"/>
<path d="M191.831 20.9333C191.831 19.2569 190.925 18.4321 189.91 18.4321C188.897 18.4321 187.991 19.2569 187.991 20.9333C187.991 22.6096 188.897 23.4208 189.91 23.4208C190.925 23.4208 191.831 22.6101 191.831 20.9333ZM189.91 24.7323C188.14 24.7323 186.328 23.5562 186.328 20.9333C186.328 18.3103 188.14 17.1206 189.91 17.1206C191.681 17.1206 193.494 18.3107 193.494 20.9333C193.494 23.5558 191.682 24.7323 189.91 24.7323Z" fill="white"/>
<path d="M182.666 17.1206C184.423 17.1206 185.14 18.2563 185.14 19.9868V24.5565H183.531V20.3789C183.531 19.3919 183.383 18.4321 182.152 18.4321C180.922 18.4321 180.462 19.3786 180.462 20.6897V24.5564H178.854V17.2828H180.462V18.2967C180.881 17.5396 181.652 17.1206 182.666 17.1206Z" fill="white"/>
<path d="M174.705 17.1201C176.462 17.1201 177.179 18.2557 177.179 19.9862V24.556H175.57V20.3784C175.57 19.3914 175.422 18.4316 174.191 18.4316C172.961 18.4316 172.501 19.3781 172.501 20.6892V24.5559H170.893V14.7539H172.501V18.2961C172.92 17.5391 173.691 17.1201 174.705 17.1201Z" fill="white"/>
<path d="M168.024 19.7707C167.889 19 167.213 18.4589 166.334 18.4589C165.335 18.4589 164.428 19.2028 164.428 20.9196C164.428 22.6501 165.348 23.3939 166.294 23.3939C167.078 23.3939 167.876 23.0423 168.079 22.0689H169.647C169.323 23.7725 167.822 24.7323 166.267 24.7323C164.158 24.7323 162.766 23.0964 162.766 20.9333C162.766 18.7702 164.172 17.1206 166.334 17.1206C167.917 17.1206 169.323 18.1481 169.593 19.7708L168.024 19.7707Z" fill="white"/>
<path d="M160.224 20.203C160.184 19.0677 159.319 18.378 158.373 18.378C157.616 18.378 156.574 18.8242 156.439 20.203H160.224ZM158.413 23.3939C159.251 23.3939 159.913 23.0559 160.198 22.3797H161.779C161.441 23.543 160.359 24.7323 158.48 24.7323C156.141 24.7323 154.803 22.9477 154.803 20.8656C154.803 18.6752 156.304 17.1206 158.373 17.1206C160.603 17.1206 161.995 18.9324 161.86 21.3795H156.439C156.546 22.7314 157.493 23.3939 158.413 23.3939Z" fill="white"/>
<path d="M147.717 16.1871V14.7539H155.598V16.1871H152.516V24.5559H150.799V16.1871H147.717Z" fill="white"/>
</g>
<defs>
<clipPath id="clip0_189_3107">
<rect width="220.357" height="71.5185" fill="white" transform="translate(0 0.573242)"/>
</clipPath>
</defs>
</svg>
