<svg width="26" height="26" viewBox="0 0 26 26" fill="none" xmlns="http://www.w3.org/2000/svg">
<path d="M13.0049 0.197021C7.65878 0.197021 6.09523 0.202537 5.79131 0.227749C4.69419 0.318946 4.01149 0.491688 3.26773 0.861991C2.69455 1.14661 2.24251 1.47654 1.79637 1.93902C0.98387 2.78245 0.491445 3.82008 0.313188 5.05351C0.226521 5.65229 0.201309 5.77442 0.196188 8.83296C0.194218 9.85248 0.196188 11.1942 0.196188 12.9939C0.196188 18.3358 0.202097 19.8977 0.227703 20.2011C0.316339 21.2686 0.483764 21.9403 0.838309 22.675C1.51588 24.0814 2.80998 25.1371 4.33452 25.5311C4.8624 25.667 5.44543 25.7418 6.19391 25.7773C6.51104 25.7911 9.74331 25.8009 12.9776 25.8009C16.2118 25.8009 19.446 25.797 19.7553 25.7812C20.6219 25.7404 21.1252 25.6729 21.6816 25.5291C23.216 25.1332 24.4865 24.0932 25.1779 22.6671C25.5255 21.9502 25.7018 21.2529 25.7816 20.241C25.7989 20.0204 25.8062 16.5032 25.8062 12.9906C25.8062 9.47745 25.7983 5.96666 25.781 5.74605C25.7002 4.71787 25.5239 4.02651 25.165 3.29575C24.8706 2.69755 24.5436 2.25082 24.0689 1.79405C23.2217 0.9849 22.1857 0.492476 20.9511 0.314415C20.3529 0.227946 20.2337 0.20234 17.1728 0.197021H13.0049Z" fill="url(#paint0_radial_189_2806)"/>
<path d="M13.0049 0.197021C7.65878 0.197021 6.09523 0.202537 5.79131 0.227749C4.69419 0.318946 4.01149 0.491688 3.26773 0.861991C2.69455 1.14661 2.24251 1.47654 1.79637 1.93902C0.98387 2.78245 0.491445 3.82008 0.313188 5.05351C0.226521 5.65229 0.201309 5.77442 0.196188 8.83296C0.194218 9.85248 0.196188 11.1942 0.196188 12.9939C0.196188 18.3358 0.202097 19.8977 0.227703 20.2011C0.316339 21.2686 0.483764 21.9403 0.838309 22.675C1.51588 24.0814 2.80998 25.1371 4.33452 25.5311C4.8624 25.667 5.44543 25.7418 6.19391 25.7773C6.51104 25.7911 9.74331 25.8009 12.9776 25.8009C16.2118 25.8009 19.446 25.797 19.7553 25.7812C20.6219 25.7404 21.1252 25.6729 21.6816 25.5291C23.216 25.1332 24.4865 24.0932 25.1779 22.6671C25.5255 21.9502 25.7018 21.2529 25.7816 20.241C25.7989 20.0204 25.8062 16.5032 25.8062 12.9906C25.8062 9.47745 25.7983 5.96666 25.781 5.74605C25.7002 4.71787 25.5239 4.02651 25.165 3.29575C24.8706 2.69755 24.5436 2.25082 24.0689 1.79405C23.2217 0.9849 22.1857 0.492476 20.9511 0.314415C20.3529 0.227946 20.2337 0.20234 17.1728 0.197021H13.0049Z" fill="white"/>
<path d="M13.0012 3.54541C10.4335 3.54541 10.1113 3.55664 9.10281 3.60253C8.09629 3.64862 7.40926 3.80797 6.80811 4.04177C6.18628 4.28326 5.65879 4.60629 5.13328 5.132C4.60737 5.65752 4.28434 6.185 4.04206 6.80664C3.80767 7.40799 3.64813 8.09521 3.60282 9.10133C3.55772 10.1098 3.5459 10.4323 3.5459 13C3.5459 15.5677 3.55732 15.8889 3.60302 16.8974C3.64931 17.9039 3.80866 18.5909 4.04226 19.1921C4.28394 19.8139 4.60697 20.3414 5.13269 20.8669C5.658 21.3928 6.18549 21.7167 6.80693 21.9581C7.40847 22.1919 8.0957 22.3513 9.10202 22.3974C10.1105 22.4433 10.4325 22.4545 13 22.4545C15.5679 22.4545 15.8892 22.4433 16.8977 22.3974C17.9042 22.3513 18.592 22.1919 19.1936 21.9581C19.8152 21.7167 20.3419 21.3928 20.8672 20.8669C21.3931 20.3414 21.7162 19.8139 21.9584 19.1923C22.1909 18.5909 22.3504 17.9037 22.3977 16.8976C22.443 15.8891 22.4548 15.5677 22.4548 13C22.4548 10.4323 22.443 10.11 22.3977 9.10153C22.3504 8.09502 22.1909 7.40799 21.9584 6.80683C21.7162 6.185 21.3931 5.65752 20.8672 5.132C20.3413 4.60609 19.8154 4.28306 19.193 4.04177C18.5902 3.80797 17.9028 3.64862 16.8963 3.60253C15.8878 3.55664 15.5668 3.54541 12.9983 3.54541H13.0012ZM12.1531 5.2492C12.4048 5.2488 12.6857 5.2492 13.0012 5.2492C15.5256 5.2492 15.8248 5.25826 16.8217 5.30356C17.7435 5.34571 18.2438 5.49974 18.577 5.62915C19.0183 5.80052 19.3328 6.00536 19.6635 6.33627C19.9944 6.66718 20.1993 6.98233 20.371 7.42355C20.5005 7.75642 20.6547 8.25673 20.6966 9.17855C20.7419 10.1752 20.7518 10.4746 20.7518 12.9978C20.7518 15.521 20.7419 15.8204 20.6966 16.817C20.6545 17.7388 20.5005 18.2392 20.371 18.572C20.1997 19.0132 19.9944 19.3274 19.6635 19.6581C19.3326 19.989 19.0185 20.1939 18.577 20.3652C18.2442 20.4952 17.7435 20.6489 16.8217 20.691C15.825 20.7363 15.5256 20.7462 13.0012 20.7462C10.4767 20.7462 10.1775 20.7363 9.18081 20.691C8.25899 20.6485 7.75869 20.4945 7.42522 20.365C6.984 20.1937 6.66885 19.9888 6.33794 19.6579C6.00703 19.327 5.80219 19.0127 5.63043 18.5712C5.50102 18.2384 5.34679 17.7381 5.30484 16.8162C5.25953 15.8196 5.25047 15.5202 5.25047 12.9954C5.25047 10.4707 5.25953 10.1728 5.30484 9.17618C5.34699 8.25436 5.50102 7.75406 5.63043 7.42079C5.80179 6.97958 6.00703 6.66442 6.33794 6.33352C6.66885 6.00261 6.984 5.79776 7.42522 5.626C7.75849 5.496 8.25899 5.34236 9.18081 5.30002C10.053 5.26062 10.391 5.2488 12.1531 5.24683V5.2492ZM18.048 6.81905C17.4216 6.81905 16.9134 7.32664 16.9134 7.9532C16.9134 8.57956 17.4216 9.08774 18.048 9.08774C18.6744 9.08774 19.1825 8.57956 19.1825 7.9532C19.1825 7.32683 18.6744 6.81865 18.048 6.81865V6.81905ZM13.0012 8.14465C10.3199 8.14465 8.14593 10.3186 8.14593 13C8.14593 15.6813 10.3199 17.8543 13.0012 17.8543C15.6826 17.8543 17.8557 15.6813 17.8557 13C17.8557 10.3186 15.6826 8.14465 13.0012 8.14465ZM13.0012 9.84844C14.7417 9.84844 16.1527 11.2593 16.1527 13C16.1527 14.7404 14.7417 16.1515 13.0012 16.1515C11.2606 16.1515 9.84972 14.7404 9.84972 13C9.84972 11.2593 11.2606 9.84844 13.0012 9.84844Z" fill="#34855B"/>
<defs>
<radialGradient id="paint0_radial_189_2806" cx="0" cy="0" r="1" gradientUnits="userSpaceOnUse" gradientTransform="translate(6.99823 27.7729) rotate(-90) scale(25.3753 23.6075)">
<stop stop-color="#FFDD55"/>
<stop offset="0.1" stop-color="#FFDD55"/>
<stop offset="0.5" stop-color="#FF543E"/>
<stop offset="1" stop-color="#C837AB"/>
</radialGradient>
</defs>
</svg>
