<svg width="26" height="26" viewBox="0 0 26 26" fill="none" xmlns="http://www.w3.org/2000/svg">
<g clip-path="url(#clip0_189_2804)">
<path fill-rule="evenodd" clip-rule="evenodd" d="M23.1111 0H2.88889C1.29339 0 0 1.29339 0 2.88889V23.1111C0 24.7066 1.29339 26 2.88889 26H23.1111C24.7066 26 26 24.7066 26 23.1111V2.88889C26 1.29339 24.7066 0 23.1111 0ZM7.86117 22.3889H3.98396V9.87036H7.86117V22.3889ZM5.90395 8.23117C4.63742 8.23117 3.61111 7.19684 3.61111 5.92114C3.61111 4.64544 4.63739 3.61111 5.90395 3.61111C7.17051 3.61111 8.19617 4.64548 8.19617 5.92114C8.19617 7.1968 7.17047 8.23117 5.90395 8.23117ZM22.3889 22.3889H18.5306V15.8174C18.5306 14.0157 17.846 13.0088 16.42 13.0088C14.8686 13.0088 14.0581 14.0566 14.0581 15.8174V22.3889H10.3398V9.87036H14.0581V11.5566C14.0581 11.5566 15.1761 9.48791 17.8326 9.48791C20.4891 9.48791 22.3889 11.1094 22.3889 14.4629V22.3889Z" fill="white"/>
</g>
<defs>
<clipPath id="clip0_189_2804">
<rect width="26" height="26" fill="white"/>
</clipPath>
</defs>
</svg>
