<svg width="184" height="105" viewBox="0 0 184 105" fill="none" xmlns="http://www.w3.org/2000/svg">
<g clip-path="url(#clip0_189_2713)">
<path d="M134.587 52.4953V52.5045L134.818 52.7139L134.658 53.059L134.876 53.2768L134.1 54.3185L133.937 54.714H133.778L133.599 54.9962H133.43L113.811 74.603C113.374 75.0511 112.799 75.3489 112.159 75.4671C111.952 75.5066 111.743 75.5269 111.533 75.5269C111.323 75.5269 111.114 75.5063 110.908 75.467C110.735 75.4346 110.569 75.3812 110.406 75.3224C110.377 75.312 110.346 75.3079 110.318 75.2966C109.92 75.1402 109.557 74.9081 109.252 74.6031L88.06 53.4195L72.1641 37.5338L63.7328 45.9617L63.7318 45.9607L57.1885 52.5L95.2572 90.5453C100.401 95.4364 106.395 99.1921 113.043 101.681C118.905 103.884 125.1 105 131.458 105C160.429 105 184 81.4487 184 52.5C184 23.5512 160.429 0 131.458 0C125.1 0 118.905 1.11642 113.045 3.31867C106.987 5.58927 101.466 8.91502 96.6105 13.2149L133.643 50.224C134.251 50.8309 134.586 51.6375 134.587 52.4953Z" fill="white"/>
<path d="M83.2962 39.5501L111.536 67.766L125.628 53.6768L126.804 52.5004L116.521 42.2214L89.6271 15.3455L89.6104 15.3227L88.742 14.4547C83.5933 9.55886 77.6 5.8031 70.9569 3.31939C65.0946 1.11642 58.8969 2.06413e-10 52.5335 2.06413e-10C23.5663 -8.0509e-05 0 23.5512 0 52.5C0 81.4487 23.5663 105 52.5335 105C58.8969 105 65.0947 103.884 70.9542 101.681C76.9872 99.4241 82.4805 96.1204 87.3086 91.8488L50.2827 54.8461C49.0338 53.5983 49.0302 51.5573 50.2756 50.2978L50.3873 50.1932L69.8827 30.7027C70.9417 29.6444 72.641 29.4668 73.9245 30.2806C74.0986 30.3922 74.2566 30.5217 74.4244 30.687C74.4295 30.692 74.4359 30.6953 74.441 30.7004L83.2962 39.5501Z" fill="white"/>
</g>
<defs>
<clipPath id="clip0_189_2713">
<rect width="184" height="105" fill="white"/>
</clipPath>
</defs>
</svg>
