<svg width="184" height="161" viewBox="0 0 184 161" fill="none" xmlns="http://www.w3.org/2000/svg">
<g clip-path="url(#clip0_189_2717)">
<path d="M50.9592 113.702H136.157C130.882 97.6846 116.841 85.704 99.7013 83.3578C111.202 80.5907 119.758 70.2643 119.758 57.9147C119.758 43.4468 108.03 31.7183 93.562 31.7183C79.0941 31.7183 67.3656 43.4468 67.3656 57.9147C67.3656 70.2639 75.9216 80.5902 87.4215 83.3576C70.2905 85.7031 56.2346 97.6839 50.9592 113.702Z" fill="white"/>
<path d="M28.2742 68.6173H19.7687C25.4675 33.6932 55.8371 6.94729 92.3478 6.94729C120.047 6.94729 145.128 22.2627 157.805 46.9169L163.983 43.7388C150.111 16.7597 122.662 0 92.3478 0C51.9967 0 18.4927 29.8441 12.7311 68.6173H3.94159C1.31099 68.6173 -0.353136 71.4419 0.921974 73.7427L13.0883 95.6995C14.4027 98.0716 17.8133 98.0716 19.1275 95.6995L31.2938 73.7427C32.5688 71.4417 30.905 68.6173 28.2742 68.6173Z" fill="white"/>
<path d="M182.772 85.9531L170.606 63.9964C169.292 61.6242 165.881 61.6242 164.567 63.9964L152.4 85.9531C151.125 88.2542 152.789 91.0786 155.42 91.0786H165.127C159.98 126.64 129.309 154.051 92.3456 154.051C64.1803 154.051 38.121 137.626 25.9576 112.203L19.6904 115.203C33.0017 143.024 61.5202 161 92.3456 161C133.146 161 166.93 130.482 172.128 91.0786H179.753C182.383 91.0786 184.047 88.254 182.772 85.9531Z" fill="white"/>
</g>
<defs>
<clipPath id="clip0_189_2717">
<rect width="182.727" height="161" fill="white" transform="translate(0.484375)"/>
</clipPath>
</defs>
</svg>
