<svg width="172" height="184" viewBox="0 0 172 184" fill="none" xmlns="http://www.w3.org/2000/svg">
<g clip-path="url(#clip0_189_2709)">
<path d="M149.117 139.001C144.774 139.001 140.737 140.271 137.321 142.434L110.212 111.319C116.659 104.589 120.642 95.4796 120.642 85.4239C120.642 83.9106 120.527 82.4266 120.352 80.9601L144.53 75.8171C146.376 78.9275 149.733 81.0343 153.613 81.0343C159.465 81.0343 164.21 76.2899 164.21 70.4371C164.21 64.5844 159.465 59.84 153.613 59.84C148.178 59.84 143.751 63.9461 143.139 69.2161L118.977 74.3577C116.897 67.6192 112.946 61.7172 107.759 57.1953L128.302 28.7975C130.094 29.5545 132.063 29.9733 134.13 29.9733C142.407 29.9733 149.116 23.2634 149.116 14.9865C149.116 6.70958 142.407 0 134.13 0C125.853 0 119.143 6.70958 119.143 14.9865C119.143 18.754 120.581 22.1553 122.877 24.7885L102.292 53.243C96.6898 49.9078 90.168 47.9571 83.1752 47.9571C76.7819 47.9571 70.7673 49.5669 65.5009 52.3903L57.0143 39.4762C58.4265 37.6759 59.3032 35.4362 59.3032 32.9706C59.3032 27.1179 54.5588 22.3735 48.706 22.3735C42.8533 22.3735 38.1089 27.1179 38.1089 32.9706C38.1089 38.8234 42.8533 43.5678 48.706 43.5678C49.6364 43.5678 50.5222 43.41 51.382 43.1847L59.8784 56.1123C51.2539 62.9763 45.709 73.5441 45.709 85.4236C45.709 87.1882 45.8732 88.9106 46.1093 90.6101L29.888 94.3951C27.3526 89.1051 21.9938 85.4236 15.7357 85.4236C7.0451 85.4236 0 92.469 0 101.16C0 109.85 7.0451 116.895 15.7357 116.895C24.4264 116.895 31.4718 109.85 31.4718 101.16C31.4718 101.089 31.4519 101.024 31.4509 100.954L47.6189 97.1807C50.2723 105.207 55.5478 112.033 62.4529 116.628L53.0218 134.055C51.642 133.66 50.2136 133.381 48.7064 133.381C40.0157 133.381 32.9706 140.426 32.9706 149.116C32.9706 157.807 40.0157 164.852 48.7064 164.852C57.397 164.852 64.4424 157.807 64.4424 149.116C64.4424 144.361 62.2887 140.15 58.9548 137.265L68.3823 119.845C72.922 121.798 77.9199 122.89 83.1755 122.89C91.3829 122.89 98.9497 120.22 105.122 115.745L132.229 146.858C128.979 150.706 127.011 155.674 127.011 161.106C127.011 173.314 136.908 183.211 149.116 183.211C161.324 183.211 171.222 173.314 171.222 161.106C171.222 148.898 161.325 139.001 149.117 139.001Z" fill="white"/>
</g>
<defs>
<clipPath id="clip0_189_2709">
<rect width="171.222" height="183.211" fill="white"/>
</clipPath>
</defs>
</svg>
