<svg width="193" height="32" viewBox="0 0 193 32" fill="none" xmlns="http://www.w3.org/2000/svg">
<g clip-path="url(#clip0_1420_2509)">
<path d="M117.087 13.4848V27.0856H113.57V13.4848C113.57 10.1782 111.993 8.63779 108.607 8.63779C105.22 8.63779 103.643 10.1782 103.643 13.4848V27.0856H100.075V13.4848C100.075 10.1782 98.4974 8.63779 95.1111 8.63779C91.7249 8.63779 90.1475 10.1782 90.1475 13.4848V27.0856H86.6308V6.59289H90.0018C91.3435 5.75259 93.0595 5.12206 95.1111 5.12206C98.0938 5.12206 100.409 6.05727 101.859 7.83645C103.309 6.05727 105.624 5.12206 108.607 5.12206C113.996 5.12206 117.087 8.17019 117.087 13.4848ZM8.68623 5.12206C6.63049 5.12206 4.88922 5.75627 3.51673 6.59447V6.59286H0V27.0856H3.51673V13.4848C3.51673 10.1782 5.15936 8.63776 8.68623 8.63776C12.2131 8.63776 13.8557 10.1782 13.8557 13.4848V27.0856H17.3725V13.4848C17.3725 8.24808 14.1253 5.12206 8.68623 5.12206ZM58.4922 4.77983L55.3001 3.30401L50.7748 13.0907L41.9425 6.48726L39.8364 9.30296L49.2661 16.3532L44.1461 27.4253L47.338 28.9009L52.1452 18.5051L61.5256 25.5183L63.6316 22.7028L53.6538 15.2426L58.4922 4.77983ZM184.66 24.0304C181.365 24.0304 178.851 21.2172 178.851 16.2844C178.851 11.1839 181.179 8.53839 184.433 8.53839C187.687 8.53839 188.964 11.1936 189.334 12.0422H193C192.712 10.4725 190.941 5.25435 184.433 5.25435C179.12 5.25435 175.352 9.921 175.352 16.2844C175.352 22.6058 179.161 27.2723 184.474 27.2723C190.982 27.2723 192.753 21.8845 193 20.5269H189.376C189.005 21.2905 188.079 24.0304 184.66 24.0304ZM167.464 27.0856H170.98V5.35924H167.464V27.0856ZM158.768 0H162.285V27.0856H158.768V24.3005C157.456 26.2248 155.278 27.272 152.702 27.272C149.849 27.272 147.355 26.0906 145.679 23.9453C144.158 21.9988 143.321 19.2697 143.321 16.2602C143.321 13.4207 144.02 10.8059 145.289 8.89678C146.93 6.4274 149.448 5.12206 152.569 5.12206C155.127 5.12206 157.166 5.7606 158.768 7.69694V0ZM158.768 15.8187C158.739 10.9864 156.711 8.45161 152.569 8.45161C147.251 8.45161 146.837 14.472 146.837 16.2602C146.837 18.4885 147.41 20.4494 148.451 21.7815C149.446 23.0549 151.103 23.9427 153.116 23.9427C156.517 23.9427 158.736 20.6409 158.768 15.8187ZM81.5062 8.62831V21.9294H77.9895V19.2802C76.7149 21.0907 74.9482 22.2894 71.5388 22.2894C67.6791 22.2894 63.7369 19.5652 63.7369 15.2095C63.7369 9.53053 68.7595 8.3386 73.2856 8.3386H77.9802C77.8738 4.54737 76.6842 3.28246 73.0753 3.28246C68.9811 3.28246 68.2904 5.10976 68.2904 6.28487H64.5997C64.5997 4.02509 66.3337 0.139088 73.0752 0.139088C79.4375 0.139088 81.5062 2.3605 81.5062 8.62831ZM77.944 11.3758H73.2856C67.7885 11.3758 67.1605 13.3533 67.1605 15.2095C67.1605 17.408 69.2352 19.4275 72.3944 19.1459C76.0198 18.8227 77.944 15.772 77.944 13.175L77.944 11.3758ZM125.282 16.8307C125.516 21.5426 127.319 24.0092 131.128 24.0092C134.912 24.0092 135.564 21.6813 135.913 21.1265H139.696C139.218 22.8338 137.869 27.2723 131.128 27.2723C124.865 27.2723 121.787 22.4068 121.787 16.2183C121.787 9.77391 124.871 5.12202 130.829 5.12202C136.658 5.12202 139.734 9.47501 139.734 16.1756V16.8307L125.282 16.8307ZM125.407 13.7004H136.21C135.823 10.3704 133.874 8.35788 130.829 8.35788C127.611 8.35788 125.787 10.5332 125.407 13.7004ZM25.5593 21.5585C25.793 26.2704 27.5965 28.737 31.4051 28.737C35.1889 28.737 35.8418 26.4091 36.1899 25.8542H39.9737C39.4954 27.5616 38.1466 32 31.4051 32C25.1419 32 22.0643 27.1345 22.0643 20.9461C22.0643 14.5017 25.148 9.84977 31.1066 9.84977C36.935 9.84977 40.0112 14.2028 40.0112 20.9034V21.5585L25.5593 21.5585ZM25.6846 18.4281H36.4876C36.1 15.0982 34.1514 13.0856 31.1066 13.0856C27.8882 13.0856 26.0643 15.2609 25.6846 18.4281Z" fill="#34855B"/>
</g>
<defs>
<clipPath id="clip0_1420_2509">
<rect width="193" height="32" fill="white"/>
</clipPath>
</defs>
</svg>
